<?xml version="1.0" ?><svg height="50px" id="Слой_1" style="enable-background:new 0 0 50 50;" version="1.1" viewBox="0 0 50 50" width="50px" xml:space="preserve" xmlns="http://www.w3.org/2000/svg" xmlns:xlink="http://www.w3.org/1999/xlink"><style type="text/css">
	.st0{fill-rule:evenodd;clip-rule:evenodd;fill:#ED74A5;}
	.st1{fill:#444B54;}
	.st2{fill:#FFFFFF;}
	.st3{fill-rule:evenodd;clip-rule:evenodd;fill:#FFFFFF;}
	.st4{fill-rule:evenodd;clip-rule:evenodd;fill:#F6F7F7;}
	.st5{fill-rule:evenodd;clip-rule:evenodd;fill:#F8C9DC;}
	.st6{fill:#ED74A5;}
	.st7{fill-rule:evenodd;clip-rule:evenodd;fill:#659EC9;}
	.st8{fill-rule:evenodd;clip-rule:evenodd;fill:#FF697B;}
	.st9{fill-rule:evenodd;clip-rule:evenodd;fill:#74CAFC;}
	.st10{fill-rule:evenodd;clip-rule:evenodd;fill:#41CEB3;}
	.st11{fill-rule:evenodd;clip-rule:evenodd;fill:#FFEB6B;}
	.st12{fill-rule:evenodd;clip-rule:evenodd;fill:#387FB5;}
	.st13{fill-rule:evenodd;clip-rule:evenodd;fill:#FC913A;}
	.st14{fill-rule:evenodd;clip-rule:evenodd;fill:#3C688A;}
	.st15{fill-rule:evenodd;clip-rule:evenodd;fill:#6F4BB3;}
	.st16{fill-rule:evenodd;clip-rule:evenodd;fill:#38E8A1;}
	.st17{fill-rule:evenodd;clip-rule:evenodd;fill:#45BBFF;}
</style><g><path class="st9" d="M24.95922,1.64921c5.11797,0,9.99972,0.47252,14.48778,1.26c3.93692,0.70872,6.92896,3.70115,7.6376,7.63858   c0.78737,4.48867,1.25981,9.37106,1.25981,14.48969c0,5.03991-0.47244,9.9223-1.25981,14.41097   c-0.70864,4.01615-3.70069,6.92987-7.6376,7.63858c-4.48806,0.78748-9.36982,1.25996-14.48778,1.25996   c-5.03924,0-9.92099-0.47248-14.48779-1.25996c-3.9369-0.70872-6.85022-3.62243-7.55886-7.63858   c-0.78737-4.48867-1.2598-9.37106-1.2598-14.41097c0-5.11863,0.47243-10.00102,1.2598-14.48969   c0.70865-3.93743,3.62196-6.92987,7.55886-7.63858C15.03822,2.12173,19.91998,1.64921,24.95922,1.64921L24.95922,1.64921z"/><path class="st1" d="M24.95863,50c-4.85827,0-9.82639-0.43136-14.7674-1.28323c-4.66974-0.84101-8.07812-4.28104-8.90818-8.98124   C0.4313,34.87391,0,29.92954,0,25.03808c0-4.94436,0.4313-9.91586,1.28306-14.77476c0.83548-4.6378,4.3266-8.15922,8.89597-8.98125   c9.98508-1.7268,19.92676-1.69153,29.55378-0.00136c4.6277,0.83288,8.14865,4.3543,8.97871,8.97446l0.48013,3.36678   c0.1302,0.90341-0.49912,1.74172-1.40242,1.87058c-0.87617,0.12208-1.74149-0.49783-1.86898-1.40396l-0.47199-3.30709   c-0.57507-3.18637-3.04896-5.66058-6.29323-6.24387c-9.24725-1.62099-18.81188-1.65083-28.40228,0.00136   c-3.23206,0.58193-5.61779,2.99782-6.21321,6.3022c-0.81785,4.66357-1.23288,9.44245-1.23288,14.1969   c0,4.7002,0.41503,9.4533,1.23423,14.12501c0.58185,3.29624,2.96758,5.71077,6.22406,6.29677   c9.57005,1.65084,19.13197,1.62371,28.39821-0.00135c3.29852-0.59414,5.71274-3.00867,6.29323-6.29813   c0.81921-4.66357,1.23423-9.41532,1.23423-14.1223v-1.26017c0-0.91291,0.74054-1.65355,1.65469-1.65355S50,22.865,50,23.77791   v1.26017c0,4.89824-0.43402,9.84261-1.28849,14.69609c-0.81378,4.62017-4.33473,8.14566-8.97057,8.98125   C34.87183,49.56864,29.90235,50,24.95863,50z"/><path class="st1" d="M48.10932,20.78552c-0.91415,0-1.65469-0.74064-1.65469-1.65355v-0.63076   c0-0.91291,0.74054-1.65355,1.65469-1.65355S49.764,17.5883,49.764,18.50121v0.63076   C49.764,20.04488,49.02346,20.78552,48.10932,20.78552z"/><path class="st2" d="M20.2577,38.74665c-3.60911,0-7.18568-1.02143-10.29025-3.02766   c-0.65238-0.42186-0.92364-1.24253-0.64967-1.97096c0.27397-0.72707,1.02943-1.17064,1.78625-1.05399   c1.68724,0.24146,3.68778-0.41915,5.52285-1.41074c-1.7876-1.02007-3.31344-2.67498-4.45545-4.8684   c-2.2718-4.36515-2.56476-9.92264-0.69849-13.21753c0.26855-0.47205,0.75003-0.78269,1.2912-0.83152   c0.5276-0.06104,1.07012,0.16956,1.41869,0.58871c2.46847,2.96255,5.88634,4.93351,9.58226,5.57513   c0.1085-1.91806,0.95484-3.77508,2.41693-5.16547c1.47565-1.42702,3.48976-2.15544,5.53235-2.13781   c1.83372,0.04612,3.60233,0.74606,4.95863,1.94248l4.01194,0.137c0.61576,0.02035,1.17184,0.38388,1.43768,0.94275   c0.26312,0.55887,0.19531,1.21812-0.17903,1.71052l-2.992,3.9365c-0.55608,0.72707-1.59501,0.86408-2.31656,0.31606   c-0.72698-0.55344-0.86803-1.59115-0.31466-2.31822l1.05791-1.39039l-1.45395-0.05019   c-0.43673-0.01492-0.85176-0.20211-1.15014-0.5236c-0.81378-0.8695-1.93137-1.36597-3.14391-1.39582   c-1.1203-0.05697-2.31656,0.40016-3.15882,1.21812c-1.18134,1.12181-1.66825,2.73602-1.2817,4.22407   c0.13156,0.50868,0.01492,1.04991-0.31738,1.45821c-0.33094,0.40694-0.83548,0.63076-1.36172,0.60906   c-4.38221-0.2089-8.57453-1.96011-11.86084-4.89282c-0.29703,2.34806,0.22108,5.36758,1.45395,7.73735   c0.93314,1.79055,2.63393,3.98262,5.44554,4.2512c0.67408,0.06511,1.23966,0.5331,1.42954,1.18285s-0.03526,1.3497-0.56829,1.76613   c-0.96026,0.75149-2.75193,2.02115-4.89895,2.92186c3.22664,0.80439,6.64994,0.54937,9.88471-0.80575   c4.78909-2.00352,8.26936-6.17469,9.30557-11.15704c0.18717-0.89799,1.06876-1.465,1.95578-1.28323   c0.89516,0.18719,1.46752,1.06212,1.28306,1.95604c-1.25865,6.05125-5.47132,11.11227-11.2695,13.5363   C25.28415,38.25425,22.76278,38.74665,20.2577,38.74665z"/></g></svg>