<?xml version="1.0" ?><svg height="50px" id="Слой_1" style="enable-background:new 0 0 50 50;" version="1.1" viewBox="0 0 50 50" width="50px" xml:space="preserve" xmlns="http://www.w3.org/2000/svg" xmlns:xlink="http://www.w3.org/1999/xlink"><style type="text/css">
	.st0{fill-rule:evenodd;clip-rule:evenodd;fill:#ED74A5;}
	.st1{fill:#444B54;}
	.st2{fill:#FFFFFF;}
	.st3{fill-rule:evenodd;clip-rule:evenodd;fill:#FFFFFF;}
	.st4{fill-rule:evenodd;clip-rule:evenodd;fill:#F6F7F7;}
	.st5{fill-rule:evenodd;clip-rule:evenodd;fill:#F8C9DC;}
	.st6{fill:#ED74A5;}
	.st7{fill-rule:evenodd;clip-rule:evenodd;fill:#659EC9;}
	.st8{fill-rule:evenodd;clip-rule:evenodd;fill:#FF697B;}
	.st9{fill-rule:evenodd;clip-rule:evenodd;fill:#74CAFC;}
	.st10{fill-rule:evenodd;clip-rule:evenodd;fill:#41CEB3;}
	.st11{fill-rule:evenodd;clip-rule:evenodd;fill:#FFEB6B;}
	.st12{fill-rule:evenodd;clip-rule:evenodd;fill:#387FB5;}
	.st13{fill-rule:evenodd;clip-rule:evenodd;fill:#FC913A;}
	.st14{fill-rule:evenodd;clip-rule:evenodd;fill:#3C688A;}
	.st15{fill-rule:evenodd;clip-rule:evenodd;fill:#6F4BB3;}
	.st16{fill-rule:evenodd;clip-rule:evenodd;fill:#38E8A1;}
	.st17{fill-rule:evenodd;clip-rule:evenodd;fill:#45BBFF;}
</style><g><path class="st8" d="M24.96074,1.6559c5.11811,0,10,0.3943,14.48819,1.26181c3.937,0.7098,6.92913,3.62776,7.6378,7.57099   c0.7874,4.57411,1.25984,9.46368,1.25984,14.51101s-0.47244,9.9369-1.25984,14.51101   c-0.70866,3.94323-3.70079,6.86119-7.6378,7.57099c-4.48819,0.86747-9.37008,1.26181-14.48819,1.26181   c-5.03937,0-9.92126-0.39434-14.40945-1.26181c-4.01575-0.7098-6.92913-3.62776-7.6378-7.57099   c-0.7874-4.57411-1.25984-9.46368-1.25984-14.51101s0.47244-9.9369,1.25984-14.51101   c0.70866-3.94323,3.62205-6.86119,7.6378-7.57099C15.03948,2.05019,19.92137,1.6559,24.96074,1.6559L24.96074,1.6559z"/><path class="st3" d="M21.41743,17.90193l10.23622,5.9148c0.47244,0.23659,0.70866,0.7098,0.70866,1.18298   s-0.23622,0.94635-0.70866,1.18298l-10.23622,5.9148c-0.3937,0.23658-0.86614,0.23658-1.33858,0   c-0.3937-0.23659-0.62992-0.63093-0.62992-1.1041V19.00603c0-0.47322,0.23622-0.86751,0.62992-1.1041   C20.55129,17.66534,21.02373,17.66534,21.41743,17.90193L21.41743,17.90193z"/><path class="st1" d="M24.96067,50c-5.3304,0-10.28375-0.43471-14.72304-1.29191c-4.67258-0.82731-8.11225-4.2398-8.95182-8.90344   C0.43132,34.83807,0,29.86198,0,25s0.43132-9.83807,1.28445-14.79243c0.84093-4.67723,4.2806-8.09107,8.97895-8.9211   C14.67014,0.43471,19.62348,0,24.96067,0c5.38873,0,10.36919,0.43471,14.8017,1.29191   c4.60748,0.83003,8.12988,4.32674,8.95182,8.90344l0.16954,1.07319c0.13428,0.81237,0.2672,1.63696,0.32417,2.50095   c0.06104,0.91289-0.62799,1.70217-1.53944,1.76194c-0.94944,0.06113-1.70085-0.63033-1.75917-1.54187   c-0.05018-0.75395-0.17225-1.47259-0.2889-2.18035l-0.1709-1.08678c-0.57373-3.19106-2.98936-5.57925-6.2934-6.17427   c-4.24669-0.82188-9.01693-1.23621-14.19542-1.23621c-5.12695,0-9.87006,0.41433-14.09641,1.23214   c-3.32303,0.58686-5.7373,2.97642-6.32324,6.23811C3.72314,15.53823,3.30675,20.32685,3.30675,25s0.4164,9.46177,1.23562,14.23002   c0.58458,3.24947,2.99886,5.63766,6.29612,6.22045c4.2589,0.82323,9.00201,1.23757,14.12218,1.23757   c5.17307,0,9.94195-0.41434,14.17508-1.23214c3.32438-0.60044,5.74002-2.98864,6.32324-6.23811   C46.27686,34.46992,46.69325,29.6813,46.69325,25v-1.18323c0-0.91425,0.74056-1.65598,1.65337-1.65598S50,22.90252,50,23.81677V25   c0,4.87013-0.43132,9.84758-1.28445,14.79242c-0.8233,4.58757-4.34435,8.08428-8.97353,8.91974   C35.32308,49.56529,30.34261,50,24.96067,50z"/><path class="st1" d="M48.11062,20.81997c-0.91282,0-1.65337-0.74173-1.65337-1.65598V18.5323   c0-0.91425,0.74056-1.65598,1.65337-1.65598S49.764,17.61805,49.764,18.5323V19.164   C49.764,20.07825,49.02344,20.81997,48.11062,20.81997z"/><path class="st1" d="M20.78586,33.93333c-0.48014,0-0.97385-0.11683-1.44586-0.35456   c-1.00911-0.60181-1.54487-1.54459-1.54487-2.58518v-6.86165c0-0.91425,0.74056-1.65598,1.65337-1.65598   s1.65338,0.74173,1.65338,1.65598v6.23676l9.29362-5.37005l-9.39263-5.42439c-0.23193,0.63441-0.83957,1.08814-1.55436,1.08814   c-0.91282,0-1.65337-0.74173-1.65337-1.65598c0-1.04331,0.53711-1.98745,1.435-2.5254c1.08507-0.5529,2.15115-0.53252,3.03684,0   l10.21322,5.90121c0.91417,0.45373,1.53537,1.4753,1.53537,2.61778c0,1.13976-0.61985,2.15997-1.61811,2.66261l-10.15354,5.86997   C21.8004,33.79884,21.29991,33.93333,20.78586,33.93333z"/></g></svg>