<?xml version="1.0" ?><svg height="50px" id="Слой_1" style="enable-background:new 0 0 50 50;" version="1.1" viewBox="0 0 50 50" width="50px" xml:space="preserve" xmlns="http://www.w3.org/2000/svg" xmlns:xlink="http://www.w3.org/1999/xlink"><style type="text/css">
	.st0{fill-rule:evenodd;clip-rule:evenodd;fill:#ED74A5;}
	.st1{fill:#444B54;}
	.st2{fill:#FFFFFF;}
	.st3{fill-rule:evenodd;clip-rule:evenodd;fill:#FFFFFF;}
	.st4{fill-rule:evenodd;clip-rule:evenodd;fill:#F6F7F7;}
	.st5{fill-rule:evenodd;clip-rule:evenodd;fill:#F8C9DC;}
	.st6{fill:#ED74A5;}
	.st7{fill-rule:evenodd;clip-rule:evenodd;fill:#659EC9;}
	.st8{fill-rule:evenodd;clip-rule:evenodd;fill:#FF697B;}
	.st9{fill-rule:evenodd;clip-rule:evenodd;fill:#74CAFC;}
	.st10{fill-rule:evenodd;clip-rule:evenodd;fill:#41CEB3;}
	.st11{fill-rule:evenodd;clip-rule:evenodd;fill:#FFEB6B;}
	.st12{fill-rule:evenodd;clip-rule:evenodd;fill:#387FB5;}
	.st13{fill-rule:evenodd;clip-rule:evenodd;fill:#FC913A;}
	.st14{fill-rule:evenodd;clip-rule:evenodd;fill:#3C688A;}
	.st15{fill-rule:evenodd;clip-rule:evenodd;fill:#6F4BB3;}
	.st16{fill-rule:evenodd;clip-rule:evenodd;fill:#38E8A1;}
	.st17{fill-rule:evenodd;clip-rule:evenodd;fill:#45BBFF;}
</style><g><path class="st12" d="M25.00065,1.65342c5.04703,0,9.93636,0.39372,14.51024,1.25987   c3.94299,0.70864,6.86081,3.62201,7.57056,7.55903c0.86745,4.56696,1.26176,9.44884,1.26176,14.48822   c0,5.1181-0.39432,9.92122-1.26176,14.48818c-0.70974,3.93698-3.62756,6.92915-7.57056,7.63779   c-4.57388,0.7874-9.46321,1.25983-14.51024,1.25983s-9.93636-0.47243-14.51024-1.25983   c-3.94299-0.70864-6.86081-3.70081-7.57056-7.63779c-0.86744-4.56696-1.26174-9.37008-1.26174-14.48818   c0-5.03938,0.3943-9.92126,1.26174-14.48822c0.70974-3.93702,3.62757-6.85039,7.57056-7.55903   C15.06429,2.04714,19.95362,1.65342,25.00065,1.65342L25.00065,1.65342z"/><path class="st1" d="M25,50c-4.86036,0-9.83753-0.43132-14.79026-1.28445c-4.59139-0.82465-8.0852-4.34706-8.91926-8.97353   C0.42382,35.1888,0,30.34939,0,24.96067c0-5.31413,0.43469-10.29188,1.2932-14.79764   c0.83406-4.63325,4.24636-8.04036,8.90296-8.87722C14.69518,0.43403,19.6805,0,25,0c5.32221,0,10.30754,0.43403,14.82015,1.28852   c4.63758,0.83279,8.04988,4.23991,8.89209,8.88943c0.20647,0.96436,0.36133,2.04536,0.50804,3.07481l0.05162,0.37164   c0.13041,0.90332-0.49989,1.74154-1.40459,1.87039c-0.88296,0.13292-1.74147-0.49778-1.87187-1.40381l-0.05434-0.37435   c-0.13584-0.95486-0.27711-1.95584-0.47816-2.89849c-0.5977-3.30675-2.98848-5.69254-6.24593-6.27713   C34.89187,3.72043,30.11302,3.30675,25,3.30675c-5.1103,0-9.88915,0.41504-14.20072,1.23155   C7.52554,5.1256,5.13747,7.51139,4.55064,10.76525C3.72745,15.08247,3.3145,19.85406,3.3145,24.96067   c0,5.17849,0.40209,9.81717,1.23343,14.17915c0.5977,3.31895,2.98576,5.73459,6.23506,6.31917   c9.51695,1.63574,18.91708,1.6371,28.4449-0.00136c3.23843-0.58322,5.62649-2.9975,6.22419-6.30289   c0.83134-4.38097,1.23343-9.01964,1.23343-14.19407V23.7793c0-0.91282,0.74168-1.65337,1.65725-1.65337S50,22.86648,50,23.7793   v1.18137c0,5.3833-0.42382,10.22407-1.29048,14.79628c-0.83406,4.6129-4.33058,8.13395-8.90567,8.95725   C34.84025,49.56868,29.86307,50,25,50z"/><path class="st1" d="M48.18246,20.78722c-0.82319,0-1.53499-0.61171-1.64095-1.44857l-0.07878-0.6307   c-0.11411-0.90603,0.52977-1.73204,1.4399-1.84598c0.88296-0.10851,1.73332,0.53033,1.84742,1.43636l0.07879,0.6307   c0.11411,0.90603-0.52978,1.73204-1.4399,1.84597C48.32102,20.78315,48.25038,20.78722,48.18246,20.78722z"/><path class="st2" d="M22.16094,37.87435c-0.91556,0-1.65725-0.74056-1.65725-1.65337V21.49658   c0-0.91282,0.74169-1.65337,1.65725-1.65337s1.65725,0.74056,1.65725,1.65337v14.72439   C23.81819,37.13379,23.07651,37.87435,22.16094,37.87435z"/><path class="st2" d="M36.35623,37.95302c-0.91556,0-1.65725-0.74056-1.65725-1.65338v-8.50423   c0-2.47532-2.01587-4.48812-4.49359-4.48812c-2.67062,0-6.3872,2.26237-6.3872,4.48812c0,0.91282-0.74169,1.65337-1.65725,1.65337   s-1.65725-0.74056-1.65725-1.65337c0-4.31858,5.30863-7.79487,9.7017-7.79487c4.30341,0,7.80808,3.49664,7.80808,7.79487v8.50423   C38.01347,37.21246,37.27179,37.95302,36.35623,37.95302z"/><path class="st2" d="M15.4586,37.87435c-0.91556,0-1.65725-0.74056-1.65725-1.65337V21.49658   c0-0.91282,0.74169-1.65337,1.65725-1.65337c0.91556,0,1.65725,0.74056,1.65725,1.65337v14.72439   C17.11584,37.13379,16.37416,37.87435,15.4586,37.87435z"/><path class="st3" d="M15.45859,17.40146c1.02519,0,1.89265-0.86615,1.89265-1.88976s-0.86747-1.88976-1.89265-1.88976   c-1.02517,0-1.81376,0.86615-1.81376,1.88976S14.43342,17.40146,15.45859,17.40146L15.45859,17.40146z"/></g></svg>