<svg width="32" height="32" viewBox="0 0 32 32" fill="none" xmlns="http://www.w3.org/2000/svg">
<circle cx="16" cy="16" r="16" fill="#013440"/>
<path d="M12.3933 27.9906C10.8131 27.2823 9.73985 25.7553 9.59928 24.0075C9.69162 22.2086 10.6274 20.5649 12.1132 19.5847C11.8689 20.1889 11.9285 20.8763 12.2671 21.4284C12.6529 21.9753 13.3157 22.2377 13.9652 22.1013C14.8907 21.8367 15.4325 20.8618 15.1719 19.9222C15.0795 19.5931 14.8948 19.2952 14.6424 19.0702C13.5958 18.2056 13.0705 16.8484 13.2572 15.4911C13.4368 14.7724 13.8287 14.1225 14.3818 13.6318C13.9662 14.7568 15.138 15.8672 15.925 16.413C17.3205 17.2629 18.6646 18.1973 19.9513 19.2108C21.357 20.3357 22.1235 22.0961 22.0035 23.8981C21.6874 25.8147 20.3515 27.3979 18.5302 27.9917C22.1728 27.1688 25.9282 24.2314 26 20.0649C25.9282 16.7317 23.9684 13.7402 20.9723 12.3777H20.8389C20.9056 12.5413 20.9374 12.7173 20.9312 12.8944C20.9415 12.7798 20.9415 12.6652 20.9312 12.5506C20.9476 12.6861 20.9476 12.8215 20.9312 12.9569C20.7034 13.9048 19.7615 14.4881 18.8257 14.2568C18.4522 14.1631 18.1177 13.9495 17.8776 13.6423C16.6771 12.0798 17.8776 10.3018 18.0787 8.5831C18.2019 6.38528 17.2127 4.28432 15.4581 3C16.3365 4.4864 15.1667 6.43736 14.3161 7.54773C13.4645 8.6581 12.2332 9.48515 11.2297 10.4539C10.1482 11.4746 9.15704 12.5975 8.26744 13.7975C6.34458 16.1828 5.58939 19.3285 6.21529 22.344C7.07309 25.2501 9.45255 27.4334 12.3871 28H12.4035L12.3933 27.9906Z" fill="#0A96A6"/>
</svg>
