<svg width="32" height="32" viewBox="0 0 32 32" fill="none" xmlns="http://www.w3.org/2000/svg">
<circle cx="16" cy="16" r="16" fill="#013440"/>
<path d="M15.64 28.0002C15.319 28.0002 14.999 27.9163 14.718 27.7533L11.782 26.0163C11.344 25.7713 11.558 25.6842 11.702 25.6332C12.287 25.4302 12.405 25.3832 13.03 25.0292C13.095 24.9922 13.181 25.0062 13.248 25.0462L15.504 26.3853C15.586 26.4303 15.701 26.4303 15.776 26.3853L24.571 21.3092C24.653 21.2622 24.705 21.1682 24.705 21.0712V10.9212C24.705 10.8222 24.652 10.7292 24.568 10.6792L15.777 5.60725C15.696 5.56025 15.588 5.56025 15.506 5.60725L6.717 10.6802C6.632 10.7292 6.578 10.8252 6.578 10.9212V21.0712C6.578 21.1682 6.632 21.2602 6.717 21.3062L9.126 22.6982C10.433 23.3522 11.234 22.5823 11.234 21.8083V11.7873C11.234 11.6453 11.348 11.5342 11.49 11.5342H12.605C12.744 11.5342 12.86 11.6463 12.86 11.7873V21.8083C12.86 23.5533 11.91 24.5532 10.256 24.5532C9.748 24.5532 9.347 24.5533 8.23 24.0023L5.922 22.6752C5.352 22.3462 5 21.7302 5 21.0712V10.9212C5 10.2622 5.353 9.64625 5.922 9.31825L14.717 4.23625C15.274 3.92125 16.013 3.92125 16.565 4.23625L25.359 9.31825C25.929 9.64725 26.283 10.2622 26.283 10.9212V21.0712C26.283 21.7302 25.929 22.3442 25.359 22.6752L16.565 27.7533C16.285 27.9163 15.966 28.0002 15.64 28.0002ZM22.741 17.9932C22.741 16.0932 21.457 15.5872 18.754 15.2302C16.023 14.8692 15.745 14.6823 15.745 14.0433C15.745 13.5153 15.98 12.8103 18.003 12.8103C19.81 12.8103 20.476 13.1992 20.75 14.4172C20.774 14.5322 20.879 14.6163 20.997 14.6163H22.138C22.209 14.6163 22.276 14.5852 22.324 14.5352C22.372 14.4812 22.398 14.4122 22.391 14.3392C22.214 12.2412 20.82 11.2632 18.003 11.2632C15.495 11.2632 13.999 12.3212 13.999 14.0962C13.999 16.0212 15.487 16.5533 17.894 16.7913C20.774 17.0733 20.997 17.4943 20.997 18.0603C20.997 19.0433 20.208 19.4622 18.355 19.4622C16.028 19.4622 15.516 18.8783 15.344 17.7203C15.324 17.5963 15.218 17.5052 15.091 17.5052H13.954C13.813 17.5052 13.7 17.6173 13.7 17.7583C13.7 19.2403 14.506 21.0063 18.355 21.0063C21.143 21.0073 22.741 19.9102 22.741 17.9932Z" fill="#0A96A6"/>
</svg>
