<svg width="32" height="32" viewBox="0 0 32 32" fill="none" xmlns="http://www.w3.org/2000/svg">
<circle cx="16" cy="16" r="16" fill="#013440"/>
<path d="M7.36267 7H24.4064L22.8848 24.3866L15.9738 26.3757L8.92173 24.3871L7.36267 7Z" fill="#0A96A6"/>
<path d="M15.9313 8.43121H22.8984L21.5416 23.312L15.9454 24.8806L15.9313 8.43121Z" fill="white" fill-opacity="0.301961"/>
<path d="M22.0744 20.1269L22.8322 18.2106H25.0201L23.9817 15.3038L25.2804 12.0197L29 21.8957H26.2569L25.6212 20.1269H22.0744Z" fill="#72C9DD"/>
<path d="M19.7341 21.356L23.716 11.48H21.0761L18.3522 17.8621L16.4152 11.48H14.3861L12.3064 17.8621L10.8397 14.9539L9.51236 19.0431L10.86 21.356H13.458L15.3373 15.6326L17.1292 21.356H19.7341Z" fill="#72C9DD"/>
<path d="M5.27488 17.9663H6.90094C7.39348 17.9663 7.83208 17.9113 8.21676 17.8014L8.63726 16.5058L9.81254 12.885C9.72298 12.7431 9.62073 12.6089 9.50582 12.4824C8.90241 11.8145 8.01951 11.4806 6.85716 11.4806H2.76904V21.3566H5.27488V17.9663ZM7.42719 13.7526C7.6629 13.9898 7.78076 14.3073 7.78076 14.705C7.78076 15.1057 7.6771 15.4236 7.46983 15.6585C7.24257 15.9195 6.82415 16.05 6.21459 16.05H5.27488V13.3968H6.2215C6.7896 13.3968 7.19151 13.5154 7.42719 13.7526Z" fill="#72C9DD"/>
</svg>
