<?xml version="1.0" standalone="no"?><svg xmlns="http://www.w3.org/2000/svg" viewBox="0 0 1440 320"><path fill="#011c27" fill-opacity="1" d="M0,64L34.3,64C68.6,64,137,64,206,90.7C274.3,117,343,171,411,202.7C480,235,549,245,617,229.3C685.7,213,754,171,823,165.3C891.4,160,960,192,1029,208C1097.1,224,1166,224,1234,224C1302.9,224,1371,224,1406,224L1440,224L1440,320L1405.7,320C1371.4,320,1303,320,1234,320C1165.7,320,1097,320,1029,320C960,320,891,320,823,320C754.3,320,686,320,617,320C548.6,320,480,320,411,320C342.9,320,274,320,206,320C137.1,320,69,320,34,320L0,320Z"></path></svg>